<svg xmlns="http://www.w3.org/2000/svg">

  <symbol id="icon-mark" viewBox="0 0 24 24">
    <path d="M11.999 1.49976C9.81178 1.50235 7.71487 2.37238 6.16826 3.91899C4.62165 5.4656 3.75162 7.56252 3.74902 9.74976C3.74902 16.8088 11.249 22.1409 11.5684 22.3643C11.6947 22.4525 11.845 22.4998 11.999 22.4998C12.1531 22.4998 12.3034 22.4525 12.4297 22.3643C12.749 22.1409 20.249 16.8088 20.249 9.74976C20.2464 7.56252 19.3764 5.4656 17.8298 3.91899C16.2832 2.37238 14.1863 1.50235 11.999 1.49976ZM11.9996 6.75003C12.5929 6.75003 13.1729 6.92597 13.6663 7.25562C14.1596 7.58526 14.5441 8.0538 14.7712 8.60198C14.9983 9.15016 15.0577 9.75336 14.9419 10.3353C14.8262 10.9172 14.5405 11.4518 14.1209 11.8713C13.7013 12.2909 13.1668 12.5766 12.5848 12.6924C12.0029 12.8081 11.3997 12.7487 10.8515 12.5217C10.3033 12.2946 9.83481 11.9101 9.50516 11.4167C9.17552 10.9234 8.99957 10.3434 8.99957 9.75003C8.99956 9.35606 9.07715 8.96595 9.22791 8.60196C9.37867 8.23798 9.59965 7.90726 9.87823 7.62868C10.1568 7.3501 10.4875 7.12913 10.8515 6.97837C11.2155 6.82761 11.6056 6.75002 11.9996 6.75003Z"/>
  </symbol>

  <symbol id='icon-instagram' viewBox="0 0 24 24">
    <path fill-rule="evenodd" clip-rule="evenodd" d="M10.9058 2.00305C11.2306 2.00254 11.593 2.00305 12.0001 2.00305C15.2571 2.00305 15.6431 2.01474 16.9293 2.0732C18.1186 2.12759 18.7641 2.32635 19.1941 2.49334C19.7634 2.71446 20.1692 2.97879 20.5959 3.40579C21.0229 3.83279 21.2872 4.23945 21.5088 4.80878C21.6757 5.23832 21.8747 5.8839 21.9288 7.07339C21.9873 8.35947 22 8.7458 22 12.0017C22 15.2575 21.9873 15.6438 21.9288 16.9299C21.8745 18.1194 21.6757 18.765 21.5088 19.1945C21.2877 19.7639 21.0229 20.1692 20.5959 20.596C20.169 21.023 19.7636 21.2873 19.1941 21.5084C18.7646 21.6762 18.1186 21.8744 16.9293 21.9288C15.6434 21.9873 15.2571 22 12.0001 22C8.74291 22 8.35688 21.9873 7.07097 21.9288C5.88163 21.8739 5.23613 21.6752 4.80588 21.5082C4.23662 21.2871 3.83001 21.0227 3.40307 20.5957C2.97612 20.1687 2.71183 19.7631 2.49022 19.1935C2.32326 18.764 2.12427 18.1184 2.07014 16.9289C2.01169 15.6428 2 15.2565 2 11.9986C2 8.74071 2.01169 8.35642 2.07014 7.07034C2.12453 5.88085 2.32326 5.23527 2.49022 4.80522C2.71132 4.23589 2.97612 3.82923 3.40307 3.40223C3.83001 2.97523 4.23662 2.7109 4.80588 2.48927C5.23587 2.32152 5.88163 2.12327 7.07097 2.06862C8.19627 2.01779 8.63236 2.00254 10.9058 2V2.00305ZM18.5115 4.02875C17.7034 4.02875 17.0477 4.68373 17.0477 5.49223C17.0477 6.30047 17.7034 6.95622 18.5115 6.95622C19.3197 6.95622 19.9753 6.30047 19.9753 5.49223C19.9753 4.68398 19.3197 4.02875 18.5115 4.02875ZM12.0001 5.73928C8.54062 5.73928 5.73575 8.5445 5.73575 12.0044C5.73575 15.4644 8.54062 18.2683 12.0001 18.2683C15.4596 18.2683 18.2635 15.4644 18.2635 12.0044C18.2635 8.5445 15.4596 5.73928 12.0001 5.73928Z"/>
    <path fill-rule="evenodd" clip-rule="evenodd" d="M12.0001 7.93781C14.2456 7.93781 16.0663 9.75839 16.0663 12.0044C16.0663 14.2503 14.2456 16.0711 12.0001 16.0711C9.75436 16.0711 7.934 14.2503 7.934 12.0044C7.934 9.75839 9.75436 7.93781 12.0001 7.93781Z"/>
  </symbol>

  <symbol id="icon-phone" viewBox="0 0 16 17">
    <path d="M15.2228 11.2455L11.4696 9.63702C11.2736 9.55266 11.0596 9.5187 10.8472 9.53821C10.6347 9.55773 10.4306 9.63012 10.2533 9.74877L8.24652 11.0864C7.02006 10.4899 6.02741 9.50164 5.42548 8.27784L5.42563 8.27768L6.75861 6.2409C6.87463 6.06408 6.94503 5.86126 6.96349 5.65057C6.98195 5.43989 6.94791 5.22791 6.8644 5.03361L5.25442 1.27721C5.14482 1.02223 4.95559 0.809603 4.71503 0.671173C4.47448 0.532742 4.19556 0.475954 3.92004 0.509313C2.83735 0.648518 1.84237 1.17712 1.12098 1.99637C0.399578 2.81562 0.00110656 3.86947 0 4.96107C0 11.3237 5.17632 16.5 11.539 16.5C12.6306 16.4989 13.6844 16.1004 14.5037 15.379C15.3229 14.6576 15.8515 13.6626 15.9907 12.5799C16.024 12.3044 15.9672 12.0255 15.8287 11.7849C15.6903 11.5444 15.4777 11.3552 15.2228 11.2455Z"/>
  </symbol>

  <symbol id="icon-arrow" viewBox="0 0 8 14">
    <path d="M8 2L3 7L8 12L7 14L0 7L7 0L8 2Z"/>
  </symbol>

  <symbol id="icon-date" viewBox="0 0 24 24" >
    <path d="M19.499 2.99951H17.249V2.24951C17.249 2.0506 17.17 1.85983 17.0294 1.71918C16.8887 1.57853 16.6979 1.49951 16.499 1.49951C16.3001 1.49951 16.1093 1.57853 15.9687 1.71918C15.828 1.85983 15.749 2.0506 15.749 2.24951V2.99951H8.24902V2.24951C8.24902 2.0506 8.17001 1.85983 8.02935 1.71918C7.8887 1.57853 7.69794 1.49951 7.49902 1.49951C7.30011 1.49951 7.10935 1.57853 6.96869 1.71918C6.82804 1.85983 6.74902 2.0506 6.74902 2.24951V2.99951H4.49902C4.10132 2.9999 3.72002 3.15807 3.4388 3.43929C3.15758 3.7205 2.99942 4.10181 2.99902 4.49951V19.4995C2.99942 19.8972 3.15758 20.2785 3.4388 20.5597C3.72002 20.841 4.10132 20.9991 4.49902 20.9995H19.499C19.8967 20.9991 20.278 20.841 20.5592 20.5597C20.8405 20.2785 20.9986 19.8972 20.999 19.4995V4.49951C20.9986 4.10181 20.8405 3.7205 20.5592 3.43929C20.278 3.15807 19.8967 2.9999 19.499 2.99951ZM19.499 7.49951H4.49902V4.49951H6.74902V5.24951C6.74902 5.44842 6.82804 5.63919 6.96869 5.77984C7.10935 5.92049 7.30011 5.99951 7.49902 5.99951C7.69794 5.99951 7.8887 5.92049 8.02935 5.77984C8.17001 5.63919 8.24902 5.44842 8.24902 5.24951V4.49951H15.749V5.24951C15.749 5.44842 15.828 5.63919 15.9687 5.77984C16.1093 5.92049 16.3001 5.99951 16.499 5.99951C16.6979 5.99951 16.8887 5.92049 17.0294 5.77984C17.17 5.63919 17.249 5.44842 17.249 5.24951V4.49951H19.499V7.49951Z" fill="#E7490F"/>
  </symbol>


</svg>
