<svg width="1440" height="240" viewBox="0 0 1440 240" fill="none" xmlns="http://www.w3.org/2000/svg">
<g clip-path="url(#clip0_114_182)">
<path fill-rule="evenodd" clip-rule="evenodd" d="M840.107 631.363L685.831 642.151L432.32 105.831L610.639 93.3618L749.553 419.201L839.621 77.3498L1015.08 65.0807L840.107 631.363Z" fill="#ECECEC"/>
<path fill-rule="evenodd" clip-rule="evenodd" d="M379.907 106.354L388.579 230.368L63.7119 253.085L69.9514 342.314L369.488 321.369L378.16 445.382L78.6233 466.328L84.9224 556.409L418.949 533.052L427.621 657.065L-76.9253 692.346L-115.479 140.995L379.907 106.354Z" fill="#ECECEC"/>
<path fill-rule="evenodd" clip-rule="evenodd" d="M1550.59 30.5097L1559.26 154.523L1234.39 177.24L1240.63 266.47L1540.17 245.524L1548.84 369.537L1249.3 390.483L1255.6 480.565L1589.63 457.207L1598.3 581.22L1093.76 616.502L1055.2 65.1505L1550.59 30.5097Z" fill="#ECECEC"/>
</g>
<defs>
<clipPath id="clip0_114_182">
<rect width="1476.73" height="138.075" fill="white" transform="translate(-18.3672 103.012) rotate(-4)"/>
</clipPath>
</defs>
</svg>
